<svg width="56" height="56" viewBox="0 0 56 56" fill="none" xmlns="http://www.w3.org/2000/svg">
<path d="M29.951 18.7164L30.1333 18.8865L30.8521 19.6052C31.0989 19.8509 31.4228 20.0024 31.7673 20.0365L31.916 20.0438H32.944C34.5478 20.0438 35.8592 21.2979 35.9509 22.8788L35.956 23.0558V24.0828C35.956 24.4326 36.0766 24.7689 36.2942 25.0362L36.3933 25.1465L37.1121 25.8653C38.2436 26.9917 38.2942 28.7929 37.2576 29.98L37.1223 30.1251L36.3939 30.8535C36.149 31.099 35.9974 31.4231 35.9633 31.7672L35.956 31.9158V32.9448C35.956 34.5485 34.7019 35.8591 33.1209 35.9507L32.944 35.9558H31.916C31.5674 35.9558 31.2307 36.0769 30.9632 36.2951L30.8529 36.3945L30.1351 37.1113C29.0099 38.2442 27.2073 38.2944 26.0198 37.2574L25.8657 37.1131L25.1485 36.396C24.9001 36.1494 24.5757 35.9973 24.2322 35.9631L24.084 35.9558H23.055C21.4519 35.9558 20.1407 34.7023 20.0491 33.1217L20.044 32.9448V31.9158C20.044 31.5678 19.9227 31.2308 19.7046 30.9637L19.6053 30.8537L18.8882 30.1356C17.7556 29.0094 17.7053 27.2068 18.7424 26.0204L18.8777 25.8755L19.6038 25.1483C19.8507 24.8996 20.0025 24.5758 20.0366 24.2315L20.044 24.0828V23.0558L20.0491 22.8789C20.1373 21.3567 21.3565 20.1371 22.8781 20.0489L23.055 20.0438H24.084C24.4325 20.0438 24.7692 19.9229 25.0363 19.7057L25.1463 19.6068L25.8645 18.8877C26.9908 17.7562 28.7932 17.7064 29.951 18.7164ZM27.0414 19.8426L26.9267 19.9467L26.2054 20.669C25.6882 21.1826 25.0041 21.4897 24.2818 21.5373L24.084 21.5438H23.055C22.2674 21.5438 21.6197 22.1479 21.5502 22.9182L21.544 23.0558V24.0828C21.544 24.8119 21.2794 25.5131 20.8021 26.0612L20.6667 26.2067L19.9395 26.9349C19.3877 27.4892 19.3556 28.3649 19.8432 28.9589L19.9477 29.0738L20.6669 29.7941C21.1813 30.3097 21.4896 30.995 21.5374 31.7178L21.544 31.9158V32.9448C21.544 33.7328 22.1477 34.3801 22.9175 34.4496L23.055 34.4558H24.084C24.8118 34.4558 25.5135 34.7207 26.0617 35.198L26.2073 35.3335L26.9306 36.0568C27.4888 36.6119 28.3647 36.6442 28.9583 36.1565L29.073 36.0521L29.7939 35.3322C30.3106 34.8179 30.9951 34.5101 31.718 34.4623L31.916 34.4558H32.944C33.7327 34.4558 34.3803 33.8524 34.4498 33.0823L34.456 32.9448V31.9158C34.456 31.1869 34.7208 30.4839 35.1974 29.9383L35.3327 29.7935L36.0602 29.066C36.612 28.511 36.6439 27.6358 36.157 27.0419L36.0527 26.9271L35.3308 26.2052C34.8169 25.6877 34.5101 25.0042 34.4625 24.2809L34.456 24.0828V23.0558C34.456 22.2674 33.8519 21.6195 33.0816 21.55L32.944 21.5438H31.916C31.1868 21.5438 30.4848 21.2794 29.9379 20.8024L29.7927 20.6671L29.1047 19.9773L29.0649 19.9403C28.5106 19.3885 27.6347 19.3562 27.0414 19.8426ZM31.0964 30.0424C31.1664 30.1124 31.2264 30.1924 31.2664 30.2824C31.2964 30.3724 31.3164 30.4724 31.3164 30.5724C31.3164 30.6734 31.2964 30.7624 31.2664 30.8524C31.2264 30.9424 31.1664 31.0324 31.0964 31.1024C30.9564 31.2424 30.7664 31.3224 30.5664 31.3224C30.3664 31.3224 30.1764 31.2424 30.0364 31.1024C29.9664 31.0324 29.9164 30.9424 29.8764 30.8524C29.8364 30.7624 29.8164 30.6734 29.8164 30.5724C29.8164 30.4724 29.8364 30.3724 29.8764 30.2824C29.9164 30.1924 29.9664 30.1124 30.0364 30.0424C30.3164 29.7624 30.8164 29.7624 31.0964 30.0424ZM31.1 24.8992C31.3663 25.1654 31.3905 25.5821 31.1726 25.8757L31.1 25.9598L25.96 31.0998C25.6671 31.3927 25.1922 31.3927 24.8994 31.0998C24.6331 30.8335 24.6089 30.4169 24.8267 30.1233L24.8994 30.0392L30.0394 24.8992C30.3322 24.6063 30.8071 24.6063 31.1 24.8992ZM25.9563 24.9028C26.0963 25.0418 26.1763 25.2328 26.1763 25.4328C26.1763 25.5328 26.1663 25.6218 26.1263 25.7128C26.0863 25.8028 26.0263 25.8828 25.9563 25.9628C25.8863 26.0328 25.8063 26.0818 25.7163 26.1218C25.6263 26.1618 25.5263 26.1828 25.4263 26.1828C25.3263 26.1828 25.2363 26.1618 25.1463 26.1218C25.0563 26.0818 24.9663 26.0328 24.8963 25.9628C24.8263 25.8828 24.7763 25.8028 24.7363 25.7128C24.6963 25.6218 24.6763 25.5328 24.6763 25.4328C24.6763 25.3318 24.6963 25.2328 24.7363 25.1428C24.7763 25.0528 24.8263 24.9628 24.8963 24.9028C25.1863 24.6218 25.6763 24.6218 25.9563 24.9028Z" fill="#EA7C69"/>
</svg>
