<svg width="104" height="104" viewBox="0 0 104 104" fill="none" xmlns="http://www.w3.org/2000/svg">
<g filter="url(#filter0_d)">
<rect x="24" y="16" width="56" height="56" rx="8" fill="#EA7C69"/>
<path d="M49.7305 34.7884C51.0005 33.7794 52.7805 33.7394 54.0895 34.6684L54.2505 34.7884L60.3395 39.6594C61.0095 40.1784 61.4205 40.9494 61.4905 41.7884L61.5005 41.9894V50.0984C61.5005 52.1884 59.8495 53.8884 57.7805 53.9984H55.7905C54.8395 53.9794 54.0705 53.2394 54.0005 52.3094L53.9905 52.1684V49.3094C53.9905 48.9984 53.7595 48.7394 53.4505 48.6884L53.3605 48.6784H50.6895C50.3705 48.6884 50.1105 48.9184 50.0705 49.2184L50.0605 49.3094V52.1594C50.0605 52.2184 50.0495 52.2884 50.0405 52.3384L50.0305 52.3594L50.0195 52.4284C49.9005 53.2794 49.2005 53.9284 48.3305 53.9894L48.2005 53.9984H46.4105C44.3205 53.9984 42.6105 52.3594 42.5005 50.2984V41.9894C42.5095 41.1384 42.8805 40.3484 43.5005 39.7984L49.7305 34.7884ZM53.3805 35.8784C52.6205 35.2684 51.5405 35.2394 50.7405 35.7684L50.5895 35.8784L44.5095 40.7794C44.1605 41.0384 43.9505 41.4284 43.9005 41.8384L43.8895 41.9984V50.0984C43.8895 51.4284 44.9295 52.5184 46.2505 52.5984H48.2005C48.4205 52.5984 48.6105 52.4494 48.6395 52.2394L48.6605 52.0594L48.6705 52.0084V49.3094C48.6705 48.2394 49.4905 47.3694 50.5405 47.2884H53.3605C54.4295 47.2884 55.2995 48.1094 55.3805 49.1594V52.1684C55.3805 52.3784 55.5305 52.5594 55.7305 52.5984H57.5895C58.9295 52.5984 60.0195 51.5694 60.0995 50.2584L60.1105 50.0984V41.9984C60.0995 41.5694 59.9205 41.1684 59.6105 40.8694L59.4805 40.7584L53.3805 35.8784Z" fill="white"/>
</g>
<defs>
<filter id="filter0_d" x="0" y="0" width="104" height="104" filterUnits="userSpaceOnUse" color-interpolation-filters="sRGB">
<feFlood flood-opacity="0" result="BackgroundImageFix"/>
<feColorMatrix in="SourceAlpha" type="matrix" values="0 0 0 0 0 0 0 0 0 0 0 0 0 0 0 0 0 0 127 0" result="hardAlpha"/>
<feOffset dy="8"/>
<feGaussianBlur stdDeviation="12"/>
<feColorMatrix type="matrix" values="0 0 0 0 0.917647 0 0 0 0 0.486275 0 0 0 0 0.411765 0 0 0 0.32 0"/>
<feBlend mode="normal" in2="BackgroundImageFix" result="effect1_dropShadow"/>
<feBlend mode="normal" in="SourceGraphic" in2="effect1_dropShadow" result="shape"/>
</filter>
</defs>
</svg>
