<svg width="20" height="20" viewBox="0 0 20 20" fill="none" xmlns="http://www.w3.org/2000/svg">
<path d="M11.25 10.4352C11.25 11.3557 10.5038 12.1019 9.58329 12.1019C8.66282 12.1019 7.91663 11.3557 7.91663 10.4352C7.91663 9.51472 8.66282 8.76852 9.58329 8.76852C10.5038 8.76852 11.25 9.51472 11.25 10.4352Z" fill="#B9C0DE"/>
<path fill-rule="evenodd" clip-rule="evenodd" d="M13.0203 6.77985C13.1913 6.62587 13.4548 6.63968 13.6088 6.81069C14.3742 7.66076 14.8508 8.73133 14.9704 9.86895C15.09 11.0066 14.8463 12.1528 14.2744 13.1435C14.1593 13.3428 13.9045 13.411 13.7052 13.296C13.5059 13.1809 13.4376 12.9261 13.5527 12.7268C14.0366 11.8886 14.2428 10.9187 14.1416 9.95606C14.0404 8.99345 13.6371 8.08759 12.9895 7.3683C12.8355 7.19728 12.8493 6.93383 13.0203 6.77985Z" fill="#B9C0DE"/>
<path fill-rule="evenodd" clip-rule="evenodd" d="M15.7115 5.10703C15.8825 4.95305 16.1459 4.96685 16.2999 5.13787C17.4186 6.38028 18.1152 7.94496 18.29 9.60763C18.4647 11.2703 18.1086 12.9456 17.2727 14.3935C17.1577 14.5928 16.9028 14.6611 16.7036 14.546C16.5043 14.4309 16.436 14.1761 16.551 13.9768C17.299 12.6814 17.6176 11.1824 17.4612 9.69474C17.3049 8.20708 16.6816 6.80711 15.6806 5.69547C15.5267 5.52446 15.5405 5.26101 15.7115 5.10703Z" fill="#B9C0DE"/>
<path fill-rule="evenodd" clip-rule="evenodd" d="M6.14631 6.77985C5.9753 6.62587 5.71185 6.63968 5.55787 6.81069C4.79246 7.66076 4.31581 8.73133 4.19624 9.86895C4.07667 11.0066 4.32032 12.1528 4.89226 13.1435C5.00732 13.3428 5.26215 13.411 5.46144 13.296C5.66073 13.1809 5.72901 12.9261 5.61395 12.7268C5.13 11.8886 4.92383 10.9187 5.02501 9.95606C5.12618 8.99345 5.5295 8.08759 6.17715 7.3683C6.33113 7.19728 6.31733 6.93383 6.14631 6.77985Z" fill="#B9C0DE"/>
<path fill-rule="evenodd" clip-rule="evenodd" d="M3.45515 5.10703C3.28414 4.95305 3.02068 4.96685 2.8667 5.13787C1.74803 6.38028 1.05139 7.94496 0.876635 9.60763C0.701881 11.2703 1.05798 12.9456 1.8939 14.3935C2.00896 14.5928 2.26379 14.6611 2.46308 14.546C2.66236 14.4309 2.73065 14.1761 2.61559 13.9768C1.86766 12.6814 1.54904 11.1824 1.7054 9.69474C1.86176 8.20708 2.48507 6.80711 3.48599 5.69547C3.63997 5.52446 3.62616 5.26101 3.45515 5.10703Z" fill="#B9C0DE"/>
</svg>
