<svg width="20" height="20" viewBox="0 0 20 20" fill="none" xmlns="http://www.w3.org/2000/svg">
<path fill-rule="evenodd" clip-rule="evenodd" d="M14.5833 2.5C14.8135 2.5 15 2.68655 15 2.91667L15 4.58333C15 4.81345 14.8135 5 14.5833 5C14.3532 5 14.1667 4.81345 14.1667 4.58333L14.1667 2.91667C14.1667 2.68655 14.3532 2.5 14.5833 2.5Z" fill="#FF16A2"/>
<path fill-rule="evenodd" clip-rule="evenodd" d="M7.08333 2.5C7.31345 2.5 7.5 2.68655 7.5 2.91667L7.5 4.58333C7.5 4.81345 7.31345 5 7.08333 5C6.85321 5 6.66667 4.81345 6.66667 4.58333L6.66667 2.91667C6.66667 2.68655 6.85321 2.5 7.08333 2.5Z" fill="#FF16A2"/>
<path fill-rule="evenodd" clip-rule="evenodd" d="M2.5 7.08334C2.5 5.47251 3.80584 4.16667 5.41667 4.16667H15.4167C17.0275 4.16667 18.3333 5.47251 18.3333 7.08334V13.75C18.3333 15.3608 17.0275 16.6667 15.4167 16.6667H5.41667C3.80584 16.6667 2.5 15.3608 2.5 13.75V7.08334ZM5.41667 5.00001C4.26607 5.00001 3.33333 5.93275 3.33333 7.08334V13.75C3.33333 14.9006 4.26607 15.8333 5.41667 15.8333H15.4167C16.5673 15.8333 17.5 14.9006 17.5 13.75V7.08334C17.5 5.93275 16.5673 5.00001 15.4167 5.00001H5.41667Z" fill="#1657FF"/>
<path d="M12.5048 8.9097C12.472 9.09707 12.6115 9.25358 12.7794 9.25358C12.9473 9.25358 13.0782 9.09486 13.1298 8.91308C13.2627 8.44588 13.6672 8.12429 14.1736 8.12429C14.7501 8.12429 15.1205 8.57362 15.1205 9.13826C15.1205 9.61543 14.9633 9.92559 14.2819 10.7328L12.5928 12.7382C12.5376 12.8037 12.5068 12.8909 12.5068 12.9816C12.5068 13.1759 12.6452 13.3333 12.8159 13.3333H15.5538C15.7082 13.3333 15.8333 13.1909 15.8333 13.0152C15.8333 12.8395 15.7082 12.6971 15.5538 12.6971H13.3839C13.3762 12.6971 13.3699 12.69 13.3699 12.6812L14.5684 11.2815C15.4944 10.2 15.7495 9.72677 15.7495 9.09452C15.7495 8.2237 15.1065 7.5 14.1736 7.5C13.3166 7.5 12.65 8.08185 12.5048 8.9097Z" fill="#FF16A2"/>
<path d="M7.08726 13.3333C8.40552 13.3333 9.16667 12.1948 9.16667 10.4108C9.16667 8.6385 8.4016 7.5 7.08726 7.5C5.77291 7.5 5 8.64632 5 10.4147C5 12.1987 5.76507 13.3333 7.08726 13.3333ZM7.08726 12.7191C6.20057 12.7191 5.71014 11.8192 5.71014 10.4108C5.71014 9.03365 6.21234 8.11815 7.08726 8.11815C7.96218 8.11815 8.45653 9.02582 8.45653 10.4147C8.45653 11.8232 7.97003 12.7191 7.08726 12.7191Z" fill="#FF16A2"/>
</svg>
