<svg width="20" height="20" viewBox="0 0 20 20" fill="none" xmlns="http://www.w3.org/2000/svg">
<path fill-rule="evenodd" clip-rule="evenodd" d="M2.91667 2.5001C3.14679 2.5001 3.33333 2.68665 3.33333 2.91677V15.8334H17.9167C18.1468 15.8334 18.3333 16.02 18.3333 16.2501C18.3333 16.4802 18.1468 16.6668 17.9167 16.6668H2.91667C2.68655 16.6668 2.5 16.4802 2.5 16.2501V2.91677C2.5 2.68665 2.68655 2.5001 2.91667 2.5001Z" fill="#B9C0DE"/>
<path fill-rule="evenodd" clip-rule="evenodd" d="M17.2558 2.53745C17.4652 2.63267 17.5579 2.87969 17.4627 3.08919L13.296 12.2559C13.2284 12.4046 13.0801 12.5001 12.9167 12.5001H8.08926L5.71129 14.8781C5.54858 15.0408 5.28476 15.0408 5.12204 14.8781C4.95932 14.7153 4.95932 14.4515 5.12204 14.2888L7.62204 11.7888C7.70018 11.7107 7.80616 11.6668 7.91667 11.6668H12.6484L16.704 2.74435C16.7992 2.53486 17.0463 2.44223 17.2558 2.53745Z" fill="#B9C0DE"/>
</svg>
