<svg width="20" height="20" viewBox="0 0 20 20" fill="none" xmlns="http://www.w3.org/2000/svg">
<path fill-rule="evenodd" clip-rule="evenodd" d="M1.66663 7.08333C1.66663 5.4725 2.97246 4.16666 4.58329 4.16666H9.58329C11.1941 4.16666 12.5 5.4725 12.5 7.08333V12.0833C12.5 13.6942 11.1941 15 9.58329 15H4.58329C2.97246 15 1.66663 13.6942 1.66663 12.0833V7.08333ZM4.58329 5C3.4327 5 2.49996 5.93274 2.49996 7.08333V12.0833C2.49996 13.2339 3.4327 14.1667 4.58329 14.1667H9.58329C10.7339 14.1667 11.6666 13.2339 11.6666 12.0833V7.08333C11.6666 5.93274 10.7339 5 9.58329 5H4.58329Z" fill="#B9C0DE"/>
<path fill-rule="evenodd" clip-rule="evenodd" d="M17.4999 7.92012C17.4999 6.92652 16.3967 6.33009 15.5653 6.87424L14.732 7.41969C14.3792 7.65063 14.1666 8.04389 14.1666 8.46557V11.2089C14.1666 11.6306 14.3792 12.0239 14.732 12.2548L15.5653 12.8003C16.3967 13.3444 17.4999 12.748 17.4999 11.7544V7.92012ZM15.109 6.17699C16.4945 5.27007 18.3333 6.26412 18.3333 7.92012V11.7544C18.3333 13.4104 16.4945 14.4045 15.109 13.4975L14.2756 12.9521C13.6876 12.5672 13.3333 11.9117 13.3333 11.2089V8.46557C13.3333 7.76277 13.6876 7.10734 14.2756 6.72244L15.109 6.17699Z" fill="#B9C0DE"/>
</svg>
